<?xml version="1.0" encoding="utf-8"?>
<!-- Generator: Adobe Illustrator 26.4.1, SVG Export Plug-In . SVG Version: 6.00 Build 0)  -->
<svg version="1.1" id="Слой_1" xmlns="http://www.w3.org/2000/svg" xmlns:xlink="http://www.w3.org/1999/xlink" x="0px" y="0px"
	 viewBox="0 0 308 251" style="enable-background:new 0 0 308 251;" xml:space="preserve">
<style type="text/css">
	.st0{fill:#F4F4F4;}
	.st1{fill:none;stroke:#000000;stroke-width:0.702;stroke-miterlimit:10;}
	.st2{fill:#FFFFFF;}
	.st3{fill:#EDEEEF;}
	.st4{fill:none;stroke:#F49E51;stroke-width:0.5265;stroke-miterlimit:10;}
	.st5{fill:none;stroke:#000000;stroke-width:0.702;stroke-linecap:round;stroke-miterlimit:10;}
	.st6{fill:#F49E51;}
</style>
<path class="st0" d="M182.6,231.7H165v-7.4h-17.9v-8.8l-13.4-11.8h-20.2v-34.1H87.1v-42.2l-33.2,29.4v56.1H36.4v24.8h-7.3v-6.9h-13
	v13.9h175.3v-5.1L182.6,231.7z"/>
<path class="st1" d="M7.7,244.6h192.1"/>
<path class="st2" d="M89.2,178.1h2.4v2.1h-2.4V178.1z"/>
<path class="st2" d="M95,178.1h2.4v2.1H95V178.1z"/>
<path class="st2" d="M100.9,178.1h2.4v2.1h-2.4V178.1z"/>
<path class="st2" d="M89.2,183.8h2.4v2.1h-2.4V183.8z"/>
<path class="st2" d="M95,183.8h2.4v2.1H95V183.8z"/>
<path class="st2" d="M100.9,183.8h2.4v2.1h-2.4V183.8z"/>
<path class="st2" d="M89.2,189.6h2.4v2.1h-2.4V189.6z"/>
<path class="st2" d="M95,189.6h2.4v2.1H95V189.6z"/>
<path class="st2" d="M100.9,189.6h2.4v2.1h-2.4V189.6z"/>
<path class="st2" d="M89.2,195.3h2.4v2.1h-2.4V195.3z"/>
<path class="st2" d="M95,195.3h2.4v2.1H95V195.3z"/>
<path class="st2" d="M100.9,195.3h2.4v2.1h-2.4V195.3z"/>
<path class="st2" d="M89.2,201h2.4v2.1h-2.4V201z"/>
<path class="st2" d="M95,201h2.4v2.1H95V201z"/>
<path class="st2" d="M100.9,201h2.4v2.1h-2.4V201z"/>
<path class="st2" d="M89.2,206.7h2.4v2.1h-2.4V206.7z"/>
<path class="st2" d="M95,206.7h2.4v2.1H95V206.7z"/>
<path class="st2" d="M100.9,206.7h2.4v2.1h-2.4V206.7z"/>
<path class="st2" d="M89.2,212.5h2.4v2.1h-2.4V212.5z"/>
<path class="st2" d="M95,212.5h2.4v2.1H95V212.5z"/>
<path class="st2" d="M100.9,212.5h2.4v2.1h-2.4V212.5z"/>
<path class="st2" d="M89.2,218.2h2.4v2.1h-2.4V218.2z"/>
<path class="st2" d="M95,218.2h2.4v2.1H95V218.2z"/>
<path class="st2" d="M100.9,218.2h2.4v2.1h-2.4V218.2z"/>
<path class="st2" d="M89.2,223.9h2.4v2.1h-2.4V223.9z"/>
<path class="st2" d="M95,223.9h2.4v2.1H95V223.9z"/>
<path class="st2" d="M100.9,223.9h2.4v2.1h-2.4V223.9z"/>
<path class="st3" d="M152.3,101.5c0,0,49.1,21.9,77.3,63.6h8.8L221.2,185l-54.8-36.6c0,0-33.7-5.1-43.8-12.6c-10.1-7.6,6-36,6-36"/>
<path class="st3" d="M145.4,100.8l-32.9-2.3l-6,2.4l-2.8,143.6h30.5l-3.2-5.8L145.4,100.8z"/>
<path class="st3" d="M120.7,31.8V37c0,1.9,0.7,3.8,1.9,5.4c1.2,1.5,2.9,2.6,4.8,3.1l8.3,2V27.2l-6.9-1.7c-1-0.2-1.9-0.2-2.9,0
	c-1,0.2-1.9,0.6-2.6,1.2c-0.8,0.6-1.4,1.4-1.8,2.3S120.7,30.8,120.7,31.8z"/>
<path class="st1" d="M120.7,37c0,1.9,0.7,3.8,1.9,5.4c1.2,1.5,2.9,2.6,4.8,3.1l8.3,2"/>
<path d="M129.1,35.9c0.2,0,0.4-0.2,0.4-0.4c0-0.2-0.2-0.4-0.4-0.4c-0.2,0-0.4,0.2-0.4,0.4C128.7,35.7,128.8,35.9,129.1,35.9z"/>
<path d="M122.9,35.9c0.2,0,0.4-0.2,0.4-0.4c0-0.2-0.2-0.4-0.4-0.4s-0.4,0.2-0.4,0.4C122.5,35.7,122.7,35.9,122.9,35.9z"/>
<path class="st1" d="M124.7,37.9v-6.1"/>
<path class="st3" d="M134.6,34.9V37c0.3,0,0.5-0.1,0.8-0.2c0.3-0.1,0.5-0.3,0.7-0.5c0.2-0.2,0.3-0.4,0.5-0.7
	c0.1-0.3,0.2-0.5,0.2-0.8c0-0.1,0-0.1,0-0.2C136.5,33.5,134.6,33.6,134.6,34.9z"/>
<path class="st1" d="M134.6,37c0.3,0,0.5-0.1,0.8-0.2c0.3-0.1,0.5-0.3,0.7-0.5c0.2-0.2,0.3-0.4,0.5-0.7s0.2-0.5,0.2-0.8"/>
<path class="st4" d="M126.4,38.6c0.3,0.3,0.6,0.4,1,0.4c0.4,0,0.7-0.1,1-0.4"/>
<path class="st5" d="M124.7,37.9l1.3,0.3"/>
<path class="st6" d="M152.3,69v32.5l-46.1,11.3V76.6c0-6.2,2.1-12.3,5.9-17.2c3.9-4.9,9.2-8.4,15.3-9.9c3-0.7,6-0.8,9-0.1
	c3,0.6,5.8,1.9,8.2,3.8c2.4,1.9,4.3,4.3,5.7,7C151.7,62.9,152.3,65.9,152.3,69L152.3,69z"/>
<path class="st1" d="M126.4,45.1c0,0,1.5,6.3-2.8,8.9c-0.3,0.2-0.6,0.5-0.8,0.8c-0.2,0.3-0.3,0.7-0.3,1.1c0,3.2-0.7,10.6-6.3,9.6
	c-4.6-0.8-3.3-8.6-1.8-14.1c1-3.4,1.3-7,1.2-10.5c-0.4-7.5,0.9-20.2,14.7-18.8c2.1,0.2,4.1,0.9,5.8,2c3.6,2.3,7.6,7.4-0.7,17.5"/>
<path class="st1" d="M120.7,33.6c0,0,9.4,1.8,10.9-3.9c0,0,0.7,4.1,3.1,4.9"/>
<path class="st1" d="M131.1,238.8l14.4-138"/>
<path class="st1" d="M113.1,58.3c0,0-36.4,34.6-29.3,54.5c7,19.9,47.1-9.3,45.7-18l-1.4-4.2c0,0,5.4-7.6,3-6.2
	c-2.4,1.4-23.8,10.1-23.8,10.1l7.4-9.3"/>
<path d="M106,116.5v14.2c9-5.8,18.6-27.3,18.6-27.3C120.1,108.1,113,113.2,106,116.5z"/>
<path class="st1" d="M134.4,49.6c0,0,19.3-1.1,30.7,4.5l-6.7-20.3c0,0-6.4-4.6-1.9-5.4c0,0-1.9-5.1-0.6-4.9
	c1.3,0.2,25.5,15.4,27.3,34.7c1.9,19.3-30.9,18.8-30.9,18.8"/>
<path class="st3" d="M242.2,18.6c-8.8,0-17.5,2.6-24.8,7.5c-7.3,4.9-13.1,11.9-16.4,20c-3.4,8.2-4.3,17.1-2.5,25.8
	c1.7,8.7,6,16.6,12.2,22.9c6.2,6.2,14.2,10.5,22.9,12.2c8.7,1.7,17.6,0.8,25.8-2.5c8.2-3.4,15.1-9.1,20-16.4
	c4.9-7.3,7.5-16,7.5-24.8h-44.6V18.6z"/>
<path class="st1" d="M197.5,63.2c0,11.8,4.7,23.2,13.1,31.6c8.4,8.4,19.7,13.1,31.6,13.1c11.8,0,23.2-4.7,31.6-13.1
	c8.4-8.4,13.1-19.7,13.1-31.6"/>
<path d="M286.8,63.2h-44.6l35.9,26.5C283.7,82,286.8,72.7,286.8,63.2z"/>
<path class="st6" d="M242.2,5.1v58.1h58.1c0-15.4-6.1-30.2-17-41.1C272.4,11.2,257.6,5.1,242.2,5.1z"/>
<path class="st1" d="M242.2,63.2h58.1"/>
<path class="st6" d="M272.2,152.3h-20.8v-20.8h20.8V152.3z"/>
<path class="st6" d="M277.8,133.1L261.8,117l-16.1,16.1H277.8z"/>
<path class="st3" d="M272.2,203.6h-20.8v-20.8h20.8V203.6z"/>
<path class="st3" d="M277.8,184.4l-16.1-16.1l-16.1,16.1H277.8z"/>
<path class="st3" d="M43.2,35.1c-3.9,0-7.7,1.5-10.4,4.3c-2.8,2.8-4.3,6.5-4.3,10.4l29.5,0.1c0-1.9-0.4-3.9-1.1-5.6
	c-0.7-1.8-1.8-3.4-3.2-4.8c-1.4-1.4-3-2.5-4.8-3.2C47,35.5,45.1,35.1,43.2,35.1z"/>
<path class="st3" d="M73.9,41.5c-1.1,0-2.2,0.2-3.2,0.6c-1,0.4-1.9,1-2.7,1.8c-0.8,0.8-1.4,1.7-1.8,2.7c-0.4,1-0.6,2.1-0.6,3.2
	l16.8,0c0-2.2-0.9-4.4-2.4-5.9C78.2,42.4,76.1,41.5,73.9,41.5z"/>
<path class="st3" d="M57.9,34.5c-4.1,0-8,1.6-10.9,4.5c-2.9,2.9-4.5,6.8-4.5,10.9l30.8,0.1c0-4.1-1.6-8-4.5-10.9
	C65.9,36.1,62,34.5,57.9,34.5z"/>
<path class="st1" d="M25.7,49.8l60.6,0.1"/>
<path class="st3" d="M63.7,73.2c0.9,0,1.8,0.2,2.6,0.5c0.8,0.3,1.6,0.8,2.2,1.5c0.6,0.6,1.1,1.4,1.5,2.2c0.3,0.8,0.5,1.7,0.5,2.6
	L57,80c0-1.8,0.7-3.5,2-4.8C60.2,73.9,62,73.2,63.7,73.2z"/>
<path class="st3" d="M49.7,76.1c1,0,2,0.4,2.7,1.1c0.7,0.7,1.1,1.7,1.1,2.7h-7.7c0-1,0.4-2,1.1-2.7C47.7,76.5,48.7,76.1,49.7,76.1z"
	/>
<path class="st3" d="M57,72.9c0.9,0,1.8,0.2,2.7,0.5c0.9,0.4,1.6,0.9,2.3,1.5c0.7,0.7,1.2,1.4,1.5,2.3c0.4,0.9,0.5,1.8,0.5,2.7
	l-14.1,0c0-0.9,0.2-1.8,0.5-2.7c0.4-0.9,0.9-1.6,1.5-2.3c0.7-0.7,1.4-1.2,2.3-1.5C55.1,73.1,56.1,72.9,57,72.9z"/>
<path class="st1" d="M71.8,79.9L44,80"/>
</svg>
