<?xml version="1.0" encoding="utf-8"?>
<!-- Generator: Adobe Illustrator 26.4.1, SVG Export Plug-In . SVG Version: 6.00 Build 0)  -->
<svg version="1.1" id="Слой_1" xmlns="http://www.w3.org/2000/svg" xmlns:xlink="http://www.w3.org/1999/xlink" x="0px" y="0px"
	 viewBox="0 0 296 263" style="enable-background:new 0 0 296 263;" xml:space="preserve">
<style type="text/css">
	.st0{clip-path:url(#SVGID_00000070822592045224519950000003850037783249352850_);}
	.st1{fill:#F9F9F9;}
	.st2{fill:none;stroke:#000000;stroke-width:0.6299;stroke-miterlimit:10;}
	.st3{fill:#D6D6D6;}
	.st4{fill:#F49E51;}
	.st5{fill:#EDEEEF;}
	.st6{fill:none;stroke:#F49E51;stroke-width:0.6299;stroke-miterlimit:10;}
	.st7{fill:none;stroke:#000000;stroke-width:0.6299;stroke-linecap:round;stroke-miterlimit:10;}
</style>
<g>
	<defs>
		<rect id="SVGID_1_" x="0.3" width="295.4" height="263"/>
	</defs>
	<clipPath id="SVGID_00000056392285795477342780000006053404370169717948_">
		<use xlink:href="#SVGID_1_"  style="overflow:visible;"/>
	</clipPath>
	<g style="clip-path:url(#SVGID_00000056392285795477342780000006053404370169717948_);">
		<path class="st1" d="M39.2,27.3v211.2h24.9v-13.3h133.7v13.3h24.9V27.3H39.2z"/>
		<path class="st2" d="M12.2,238.5h237.6"/>
		<path class="st2" d="M222.8,238.5V27.3"/>
		<path class="st2" d="M64.1,225.2h133.7v13.3"/>
		<path class="st3" d="M60.4,46.4h43.4v43.4H60.4V46.4z"/>
		<path class="st2" d="M103.8,46.4v43.4H60.4"/>
		<path d="M80.1,66.1h4v4h-4V66.1z"/>
		<path class="st4" d="M109.3,46.4h43.4v43.4h-43.4V46.4z"/>
		<path class="st2" d="M152.7,46.4v43.4h-43.4"/>
		<path d="M129,66.1h4v4h-4V66.1z"/>
		<path class="st3" d="M158.2,46.4h43.4v43.4h-43.4V46.4z"/>
		<path class="st2" d="M201.6,46.4v43.4h-43.4"/>
		<path d="M177.9,66.1h4v4h-4V66.1z"/>
		<path class="st3" d="M60.4,99.4h43.4v43.4H60.4V99.4z"/>
		<path class="st2" d="M103.8,99.4v43.4H60.4"/>
		<path d="M80.1,119.1h4v4h-4V119.1z"/>
		<path class="st3" d="M109.3,99.4h43.4v43.4h-43.4V99.4z"/>
		<path class="st2" d="M152.7,99.4v43.4h-43.4"/>
		<path d="M129,119.1h4v4h-4V119.1z"/>
		<path class="st3" d="M158.2,99.4h43.4v43.4h-43.4V99.4z"/>
		<path class="st2" d="M201.6,99.4v43.4h-43.4"/>
		<path d="M177.9,119.1h4v4h-4V119.1z"/>
		<path class="st3" d="M60.4,152.5h43.4v43.4H60.4V152.5z"/>
		<path class="st2" d="M103.8,152.5v43.4H60.4"/>
		<path d="M80.1,172.2h4v4h-4V172.2z"/>
		<path class="st3" d="M109.3,152.5h43.4v43.4h-43.4V152.5z"/>
		<path class="st2" d="M152.7,152.5v43.4h-43.4"/>
		<path d="M129,172.2h4v4h-4V172.2z"/>
		<path class="st3" d="M158.2,152.5h43.4v43.4h-43.4V152.5z"/>
		<path class="st2" d="M201.6,152.5v43.4h-43.4"/>
		<path d="M177.9,172.2h4v4h-4V172.2z"/>
		<path class="st5" d="M197,105c0,0-2.6,84,5.2,142.5l-5.4,5.3h33.5l6.4-160.5L197,105z"/>
		<path class="st5" d="M273.5,134.7L250.8,146c0,0,3.9-42.3-2.1-53.7L214.1,95c0,0-7.9,83.6,19.8,99.2
			c27.7,15.6,49.9-41.6,49.9-41.6l6.1-1.9L273.5,134.7z"/>
		<path class="st5" d="M212,14v5.8c0,2.2,0.7,4.3,2.1,6c1.4,1.7,3.2,2.9,5.4,3.5l9.3,2.3V8.9L221,7c-1.1-0.3-2.2-0.3-3.3,0
			c-1.1,0.2-2.1,0.7-3,1.4c-0.9,0.7-1.6,1.5-2.1,2.5C212.2,11.9,212,12.9,212,14L212,14z"/>
		<path class="st2" d="M212,19.9c0,2.2,0.7,4.3,2.1,6c1.4,1.7,3.2,2.9,5.4,3.5l9.3,2.3"/>
		<path d="M221.4,18.7c0.2,0,0.4-0.2,0.4-0.4c0-0.2-0.2-0.4-0.4-0.4c-0.2,0-0.4,0.2-0.4,0.4C221,18.5,221.2,18.7,221.4,18.7z"/>
		<path d="M214.5,18.7c0.2,0,0.4-0.2,0.4-0.4c0-0.2-0.2-0.4-0.4-0.4c-0.2,0-0.4,0.2-0.4,0.4C214.1,18.5,214.3,18.7,214.5,18.7z"/>
		<path class="st2" d="M216.6,20.9V14h-3.4"/>
		<path class="st2" d="M222.3,14h-3.4"/>
		<path class="st5" d="M227.6,17.6V20c0.6,0,1.2-0.2,1.6-0.7c0.4-0.4,0.7-1,0.7-1.7c0-0.1,0-0.1,0-0.2
			C229.8,16,227.6,16.1,227.6,17.6z"/>
		<path class="st2" d="M227.6,20c0.6,0,1.2-0.2,1.6-0.7c0.4-0.4,0.7-1,0.7-1.7"/>
		<path class="st6" d="M218.4,21.7c0.3,0.3,0.7,0.5,1.1,0.5c0.4,0,0.8-0.2,1.1-0.5"/>
		<path class="st7" d="M216.6,20.9l1.5,0.4"/>
		<path class="st2" d="M211.5,12.4c0,0,9.2,0.9,12.6-2.3c0,0,0.7,5.2,3.1,5.6"/>
		<path class="st2" d="M228,28.1c3.6,0.7,9.1,0.5,9.1,0.5s-0.6,0.3-1.8-11.1s-9.4-13.7-9.4-13.7C202.8-1.4,209.5,28,209.5,28
			s4.5-0.2,5-1.6"/>
		<path class="st4" d="M248.7,55.8v36.5L197,105V64.3c0-7,2.3-13.8,6.7-19.3c4.3-5.5,10.4-9.4,17.2-11.1c3.3-0.8,6.8-0.9,10.1-0.1
			c3.3,0.7,6.5,2.2,9.1,4.3c2.7,2.1,4.9,4.8,6.3,7.9C247.9,49,248.7,52.4,248.7,55.8L248.7,55.8z"/>
		<path class="st2" d="M248.7,92.3L197,105"/>
		<path class="st2" d="M214.1,95c0,0-7.9,83.6,19.8,99.2c27.7,15.6,49.9-41.6,49.9-41.6"/>
		<path class="st2" d="M239.2,37.5c0,0,42.9,33.9,27.8,61.2c-15.1,27.2-60.2-9.3-60.2-9.3s-7.6-2.8-6.1-7.7l-4.2-1.3l-0.9-2.5
			c0,0,18.5-3.6,51,4.2l-13-12.9"/>
		<path class="st2" d="M201.3,48.4c0,0-9,13.8-10.4,36.4c0,0-15.4-4.6-29.3-7.7C147.8,74,145,73.1,145,73.1v4.1l3.8,1.6
			c0,0,1.4,9.4,9.9,9.6c0,0,17.3,24.2,38.3,20.4"/>
		<path d="M206.9,89.3c-0.9-0.4-1.8-0.8-2.7-1.4c-0.1,0.3-0.2,0.5-0.3,0.8c-2.3,6.8,6,15.6,18.5,19.8c9.1,3.1,17.9,2.8,22.9-0.2
			C227.3,105.8,206.9,89.3,206.9,89.3z"/>
	</g>
</g>
</svg>
