<?xml version="1.0" encoding="utf-8"?>
<!-- Generator: Adobe Illustrator 26.4.1, SVG Export Plug-In . SVG Version: 6.00 Build 0)  -->
<svg version="1.1" id="Слой_1" xmlns="http://www.w3.org/2000/svg" xmlns:xlink="http://www.w3.org/1999/xlink" x="0px" y="0px"
	 viewBox="0 0 256 264" style="enable-background:new 0 0 256 264;" xml:space="preserve">
<style type="text/css">
	.st0{fill:#EDEEEF;}
	.st1{fill:none;stroke:#000000;stroke-width:0.6805;stroke-miterlimit:10;}
	.st2{fill:none;stroke:#F49E51;stroke-width:0.5103;stroke-miterlimit:10;}
	.st3{fill:none;stroke:#000000;stroke-width:0.6805;stroke-linecap:round;stroke-miterlimit:10;}
	.st4{fill:#F49E51;}
</style>
<path class="st0" d="M184.8,11.2h56.8v102.6h-56.8V11.2z"/>
<path class="st1" d="M213.2,10.5v103.9"/>
<path class="st1" d="M184.8,113.7V11.2h56.8"/>
<path class="st1" d="M247,45.1h-67.8"/>
<path class="st1" d="M247,79.8h-67.8"/>
<path class="st0" d="M41.8,11.2h56.8v102.6H41.8V11.2z"/>
<path class="st1" d="M70.2,10.5v103.9"/>
<path class="st1" d="M41.8,113.7V11.2h56.8"/>
<path class="st1" d="M104.1,45.1H36.3"/>
<path class="st1" d="M104.1,79.8H36.3"/>
<path class="st0" d="M126.8,185.6v53.6l-3.5,7.6h24.3l7.9-75.1L126.8,185.6z"/>
<path class="st0" d="M132.2,107.5l37.7-2.2v40.8v100.7h-25.5l3.1-5.6L132.2,107.5z"/>
<path class="st0" d="M134.1,40.6v5c0,1.9,0.6,3.7,1.8,5.2c1.2,1.5,2.8,2.5,4.6,3l8,2V36.1l-6.7-1.6c-0.9-0.2-1.9-0.2-2.8,0
	c-0.9,0.2-1.8,0.6-2.6,1.2c-0.8,0.6-1.4,1.3-1.8,2.2C134.3,38.7,134.1,39.6,134.1,40.6L134.1,40.6z"/>
<path class="st1" d="M134.1,45.6c0,1.9,0.6,3.7,1.8,5.2c1.2,1.5,2.8,2.5,4.6,3l8,2"/>
<path d="M142.2,44.6c0.2,0,0.4-0.2,0.4-0.4c0-0.2-0.2-0.4-0.4-0.4c-0.2,0-0.4,0.2-0.4,0.4C141.8,44.4,142,44.6,142.2,44.6z"/>
<path d="M136.3,44.6c0.2,0,0.4-0.2,0.4-0.4c0-0.2-0.2-0.4-0.4-0.4c-0.2,0-0.4,0.2-0.4,0.4C135.9,44.4,136.1,44.6,136.3,44.6z"/>
<path class="st1" d="M138,46.5v-6h-3"/>
<path class="st1" d="M142.9,40.6h-3"/>
<path class="st0" d="M147.6,43.6v2.1c0.3,0,0.5-0.1,0.8-0.2c0.2-0.1,0.5-0.2,0.7-0.4c0.2-0.2,0.3-0.4,0.4-0.7
	c0.1-0.2,0.2-0.5,0.2-0.8c0-0.1,0-0.1,0-0.2C149.4,42.2,147.6,42.4,147.6,43.6z"/>
<path class="st1" d="M147.6,45.7c0.3,0,0.5-0.1,0.8-0.2c0.2-0.1,0.5-0.2,0.7-0.4c0.2-0.2,0.3-0.4,0.4-0.7c0.1-0.2,0.2-0.5,0.2-0.8"
	/>
<path class="st2" d="M139.7,47.2c0.2,0.2,0.6,0.4,0.9,0.4c0.4,0,0.7-0.1,0.9-0.4"/>
<path class="st3" d="M138,46.5l1.3,0.3"/>
<path class="st1" d="M134.4,38.7c0,0,0.2-3.3,3.2-3.1c3,0.2,7.3-0.1,7.6,2.7c0.3,2.7,1.4,4.9,2.4,4.9"/>
<path class="st1" d="M134.1,42.6c0,0-10.6-19.2,8.2-20.6c18.8-1.4,27.6,23.5,6.3,27.3"/>
<path class="st2" d="M149,47.1c0,0.3-0.1,0.6-0.2,0.8c-0.2,0.2-0.4,0.4-0.7,0.5c-0.3,0.1-0.6,0.1-0.8,0.1c-0.3-0.1-0.5-0.2-0.7-0.4
	c-0.2-0.2-0.3-0.5-0.4-0.7c-0.1-0.3,0-0.6,0.1-0.8c0.1-0.3,0.3-0.5,0.5-0.7c0.2-0.2,0.5-0.2,0.8-0.2"/>
<path class="st2" d="M134.1,48.3c-0.3,0.2-0.6,0.3-0.9,0.3c-0.4,0-0.8-0.2-1-0.4c-0.3-0.3-0.4-0.6-0.4-1s0.2-0.8,0.4-1
	c0.3-0.3,0.6-0.4,1-0.4"/>
<path class="st0" d="M169.9,76.7v31.5l-44.7,11V84c0-6.1,2-11.9,5.8-16.7c3.7-4.8,9-8.1,14.8-9.6c2.9-0.7,5.8-0.7,8.7-0.1
	c2.9,0.6,5.6,1.9,7.9,3.7c2.3,1.8,4.2,4.1,5.5,6.8C169.2,70.8,169.9,73.7,169.9,76.7z"/>
<path class="st4" d="M169.9,108.2l-44.7,11v69.1l67.9-10.7L169.9,108.2z"/>
<path class="st1" d="M144.4,246.9l3.1-5.6l-8.6-75.2"/>
<path class="st1" d="M163.5,62.2c0,0,21.3,18.4,7.4,44.2c-14,25.8-59-11.1-59.5-14c-0.5-2.9,4.2-3.6,8.2-1.5c0,0-0.5-3,1.6-2.1
	c2.2,0.9,3.3,3.4,3.3,3.4l30.7,1.3l-4-16.9"/>
<path class="st1" d="M134.6,92.7l-13.5-35.5l-30.8,8.4l19.1,42.6l17-3.5"/>
<path d="M131.3,107.7c0,0,17.2,22.3,42.6,12.6l-4.1-12.1C161.5,120.5,144.7,115.3,131.3,107.7z"/>
<path class="st1" d="M134.4,63.8l-8,7.2"/>
<path class="st1" d="M97.6,81.9c0,0-5,18.9,6.9,26.9c12,8,20.7,2,20.7,2"/>
<path class="st1" d="M223.8,188.2v-39.8c0-4.6-1.4-9.1-3.9-12.9c-3.7-5.7-9.5-9.7-16.1-11.1l-0.4-0.1c0,0-1.1,16.1,16.3,18.2"/>
<path class="st1" d="M223.8,193.6v-39.8c0-4.6,1.3-9.1,3.9-12.9c3.7-5.7,9.5-9.7,16.1-11.1l0.4-0.1c0,0,1.1,16-16.3,18.2"/>
<path class="st0" d="M220,135.5c-3.7-5.7-9.5-9.7-16.1-11.1l-0.4-0.1c0,0,2.4,16.7,19.8,18.8l0.6,45.1v-39.8
	C223.8,143.9,222.5,139.4,220,135.5z"/>
<path class="st0" d="M244.2,129.7l-0.4,0.1c-6.6,1.5-12.4,5.5-16.1,11.1c-2.5,3.8-3.9,8.3-3.9,12.9v39.8l1-46.5
	C242.2,144.9,244.2,129.7,244.2,129.7z"/>
<path class="st1" d="M223.8,185.5v-23.1c0-2.7-0.8-5.3-2.3-7.5c-2.2-3.3-5.5-5.6-9.4-6.5l-0.2-0.1c0,0-0.6,9.3,9.5,10.5"/>
<path class="st4" d="M210.5,182.9h26.8v64.6h-26.8V182.9z"/>
<path class="st1" d="M43.6,247.5h134.6"/>
<path class="st4" d="M61.1,186.7c21.1,0,38.2-17.1,38.2-38.2c0-21.1-17.1-38.2-38.2-38.2c-21.1,0-38.2,17.1-38.2,38.2
	C22.9,169.6,40,186.7,61.1,186.7z"/>
<path class="st1" d="M22.9,148.5c0-10.1,4-19.9,11.2-27c7.2-7.2,16.9-11.2,27-11.2c10.1,0,19.9,4,27,11.2c7.2,7.2,11.2,16.9,11.2,27
	"/>
<path class="st4" d="M44.9,172.9h32.6v27.6H44.9V172.9z"/>
<path d="M44.9,189.1h32.6v11.4H44.9V189.1z"/>
<path class="st1" d="M61.1,95.5v9.1"/>
<path class="st1" d="M47.4,97.3l2.4,8.8"/>
<path class="st1" d="M34.7,102.6l4.6,7.9"/>
<path class="st1" d="M23.7,111l6.5,6.5"/>
<path class="st1" d="M15.3,122l7.9,4.6"/>
<path class="st1" d="M10,134.7l8.8,2.4"/>
<path class="st1" d="M103.5,137.1l8.8-2.4"/>
<path class="st1" d="M99.1,126.5l7.9-4.6"/>
<path class="st1" d="M92.2,117.5l6.5-6.5"/>
<path class="st1" d="M83.1,110.5l4.6-7.9"/>
<path class="st1" d="M72.5,106.1l2.4-8.8"/>
</svg>
