<?xml version="1.0" encoding="utf-8"?>
<!-- Generator: Adobe Illustrator 26.4.1, SVG Export Plug-In . SVG Version: 6.00 Build 0)  -->
<svg version="1.1" id="Слой_1" xmlns="http://www.w3.org/2000/svg" xmlns:xlink="http://www.w3.org/1999/xlink" x="0px" y="0px"
	 viewBox="0 0 229 256" style="enable-background:new 0 0 229 256;" xml:space="preserve">
<style type="text/css">
	.st0{fill:#F4F4F4;}
	.st1{fill:none;stroke:#000000;stroke-width:0.6431;stroke-miterlimit:10;}
	.st2{fill:#F49E51;}
	.st3{fill:#EDEEEF;}
	.st4{fill:none;stroke:#F49E51;stroke-width:0.4823;stroke-miterlimit:10;}
	.st5{fill:none;stroke:#000000;stroke-width:0.6431;stroke-linecap:round;stroke-miterlimit:10;}
</style>
<path class="st0" d="M34.7,225.6l7.6,6.6l20.3-25.9l9.1,7.6l48.1-63.3l42.5,74.9l11.7-12.9l21.3,34.9H17L34.7,225.6z"/>
<path class="st1" d="M201.6,247.7h-191"/>
<path class="st2" d="M59.2,116.6c0,0-76.3,96.9,59.9,93.4l5.4,4.6v-32.5l-46.7-10.3l5.5-59.8"/>
<path d="M79.5,154c-14.1,0.7-25.4,19.5-25.4,42.6c0,0.5,0,1,0,1.5c10.4,6.7,26.6,11.2,51.1,11.9c0.9-4.4,1.3-8.9,1.3-13.4
	c0-6.5-0.9-12.9-2.8-19.1l-26-5.7L79.5,154z"/>
<path class="st2" d="M66.1,118.3c0,0-5.2,84.8,9.5,124.9l-3.1,4.5h26.1c0,0,2.9-107.8,2.9-131.1L66.1,118.3z"/>
<path class="st3" d="M85.9,52.7v11l-13.6,3.4V48.5l13.6-3.4V52.7z"/>
<path d="M78.2,56.5c0.2,0,0.4-0.2,0.4-0.4c0-0.2-0.2-0.4-0.4-0.4s-0.4,0.2-0.4,0.4C77.8,56.4,78,56.5,78.2,56.5z"/>
<path d="M83.8,56.5c0.2,0,0.4-0.2,0.4-0.4c0-0.2-0.2-0.4-0.4-0.4c-0.2,0-0.4,0.2-0.4,0.4C83.4,56.4,83.6,56.5,83.8,56.5z"/>
<path class="st1" d="M82.2,58.4v-5.6H85"/>
<path class="st1" d="M77.5,52.7h2.8"/>
<path class="st3" d="M73.2,55.6v2c-0.3,0-0.5,0-0.7-0.1c-0.2-0.1-0.4-0.2-0.6-0.4c-0.2-0.2-0.3-0.4-0.4-0.6
	c-0.1-0.2-0.1-0.5-0.1-0.7c0-0.1,0-0.1,0-0.2C71.4,54.3,73.2,54.4,73.2,55.6z"/>
<path class="st1" d="M73.2,57.6c-0.3,0-0.5,0-0.7-0.1c-0.2-0.1-0.4-0.2-0.6-0.4c-0.2-0.2-0.3-0.4-0.4-0.6c-0.1-0.2-0.1-0.5-0.1-0.7"
	/>
<path class="st4" d="M80.9,59.7c-0.5,0-1-0.2-1.4-0.6c-0.4-0.4-0.6-0.9-0.6-1.4"/>
<path class="st1" d="M85.9,63.7l-13.6,3.4"/>
<path class="st5" d="M82.2,58.4l-1.2,0.3"/>
<path class="st3" d="M59.2,86.8v29.8l42.2,10.4V93.8c0-5.7-1.9-11.3-5.4-15.8c-3.5-4.5-8.5-7.7-14-9.1c-2.7-0.7-5.5-0.7-8.2-0.1
	c-2.7,0.6-5.3,1.8-7.5,3.5c-2.2,1.7-4,3.9-5.2,6.4C59.8,81.3,59.2,84,59.2,86.8z"/>
<path class="st1" d="M66.1,118.3c0,0-5.2,84.8,9.5,124.9"/>
<path class="st1" d="M71.8,54.7c0,0-1.8-6.1,1.1-8.6c2.9-2.5,15.7-1.9,15.7-1.9s0.9,8.9-12.3,6.8c0,0-0.2,2.5-2.4,2.9"/>
<path class="st1" d="M90,72.5c0,0,19.2,12.4,15.6,45.8c-3.6,33.5-52.8-8.9-54.2-12c-1.4-3.1,3.8-5.7,10.1-2.1c0,0-2.6-2.2-1.4-2.5
	c1.2-0.3,3.6,0.6,5,3.3l29.8,5.5"/>
<path class="st1" d="M60.1,102.4H30.3l-13-30.1"/>
<path class="st4" d="M19.1,75.5l46-25"/>
<path class="st1" d="M64.9,73.5c0,0-10.5,10-13.7,28.9"/>
<path class="st1" d="M36.5,102.4c0,0,7.6,21.4,16.3,23.5"/>
<path class="st1" d="M48.4,102.4c0,0-3.7-5.2-6.2-6.4c-2.5-1.2-9.9,1.5-9,2.8s2.7,0.6,2.7,0.6s-0.4,1.3,0.3,1.6"/>
<path class="st3" d="M200.7,31.5c0-0.1,0-0.2,0-0.3c0-2.3-0.6-4.6-1.7-6.6c-1.1-2-2.8-3.7-4.7-5c-2-1.2-4.2-1.9-6.6-2
	S183,18,180.9,19c-3.3-4.9-8.1-8.6-13.6-10.6S155.8,6,150.1,7.5c-5.7,1.5-10.8,4.7-14.6,9.2c-3.8,4.5-6.2,10.1-6.7,15.9
	c-5.2,1.7-9.7,5-12.9,9.5c-3.2,4.4-4.9,9.7-4.9,15.2c0,6.9,2.7,13.5,7.6,18.4c4.9,4.9,11.5,7.6,18.4,7.6h59.7
	c6.9,0,13.5-2.7,18.4-7.6c4.9-4.9,7.6-11.5,7.6-18.4c0-6.2-2.2-12.2-6.3-17C212.4,35.6,206.8,32.5,200.7,31.5z"/>
<path class="st1" d="M180.9,19c-2.6-3.8-6.2-7-10.3-9.2c-4.1-2.2-8.7-3.3-13.4-3.3"/>
<path class="st1" d="M200.7,31.2c0-1.8-0.4-3.6-1-5.2c-0.7-1.7-1.7-3.2-3-4.4c-1.3-1.3-2.8-2.3-4.4-3s-3.4-1-5.2-1"/>
<path class="st1" d="M137,83.3h59.8c6.9,0,13.5-2.7,18.4-7.6c4.9-4.9,7.6-11.5,7.6-18.4"/>
<path d="M180.7,113.2H153V85.6h27.7V113.2z"/>
<path d="M188.3,87.6l-21.4-21.4l-21.4,21.4H188.3z"/>
<path class="st3" d="M180.7,167.6H153V140h27.7V167.6z"/>
<path class="st3" d="M188.3,142.1l-21.4-21.4l-21.4,21.4H188.3z"/>
<path class="st3" d="M180.9,221.9l-27.7,0.2l-0.2-27.7l27.7-0.2L180.9,221.9z"/>
<path class="st3" d="M188.3,196.3L166.7,175l-21.3,21.6L188.3,196.3z"/>
</svg>
